<?xml version="1.0" standalone="no"?>
<!DOCTYPE svg PUBLIC "-//W3C//DTD SVG 20010904//EN"
 "http://www.w3.org/TR/2001/REC-SVG-20010904/DTD/svg10.dtd">
<svg version="1.0" xmlns="http://www.w3.org/2000/svg"
 width="512.000000pt" height="512.000000pt" viewBox="0 0 512.000000 512.000000"
 preserveAspectRatio="xMidYMid meet">
<metadata>
Created by potrace 1.14, written by Peter Selinger 2001-2017
</metadata>
<g transform="translate(0.000000,512.000000) scale(0.100000,-0.100000)"
fill="#000000" stroke="none">
<path d="M2379 4926 c-2 -2 -32 -7 -66 -10 -106 -11 -145 -17 -243 -38 -778
-165 -1417 -705 -1713 -1448 -42 -103 -108 -322 -120 -396 -37 -218 -41 -266
-42 -474 0 -162 7 -278 20 -345 3 -11 7 -37 10 -57 2 -20 16 -85 30 -144 173
-732 683 -1336 1378 -1634 173 -74 318 -115 573 -164 143 -28 561 -28 709 0
11 2 31 6 45 9 14 2 39 7 57 10 71 12 264 66 358 100 139 52 311 136 435 213
113 70 269 187 271 203 1 5 2 15 3 22 1 6 -1 21 -5 32 -10 29 76 109 102 95
41 -22 65 -9 142 78 27 31 37 51 37 76 0 19 -5 36 -12 38 -7 3 3 23 26 53 33
45 41 49 72 46 19 -1 42 3 50 10 40 33 184 286 239 419 14 36 32 79 40 95 22
49 81 252 103 355 37 169 47 277 47 490 0 223 -13 344 -56 529 -211 905 -911
1594 -1820 1789 -51 12 -121 24 -154 27 -33 4 -69 9 -80 12 -23 6 -431 14
-436 9z"/>
</g>
</svg>
